<?xml version="1.0" encoding="UTF-8" standalone="no"?>
<svg width="358px" height="515px" viewBox="0 0 358 515" version="1.1" xmlns="http://www.w3.org/2000/svg" xmlns:xlink="http://www.w3.org/1999/xlink" xmlns:sketch="http://www.bohemiancoding.com/sketch/ns">
    <title>skis</title>
    <description>Created with Sketch (http://www.bohemiancoding.com/sketch)</description>
    <defs></defs>
    <g id="Page-1" stroke="none" stroke-width="1" fill="none" fill-rule="evenodd" sketch:type="MSPage">
        <g id="skis" sketch:type="MSLayerGroup" transform="translate(-121.000000, -52.000000)">
            <g id="Page-1" sketch:type="MSShapeGroup">
                <g id="Ski2" transform="translate(305.000000, 306.000000) rotate(-13.000000) translate(-305.000000, -306.000000) translate(188.000000, 19.000000)">
                    <path d="M119.610196,15.7285914 C117.902782,9.00734872 118.591609,-13.1213421 117.187607,-13.1213421 C115.783606,-13.1213387 115.516533,7.88417635 114.040941,13.6928525 C109.312795,32.3052204 104.662302,45.2571668 101.494594,60.1418025 C100.637285,64.1701867 104.506549,105.235288 105.211607,162.169186 C105.701253,201.708422 103.098796,586.555201 103.098796,586.555201 L127.879877,586.555201 C127.879877,586.555201 130.462732,199.731625 130.547798,159.78386 C130.666656,103.966821 133.477496,64.0078674 132.625418,60.1418025 C129.449253,45.7308401 124.106519,33.4283961 119.610196,15.7285914 L119.610196,15.7285914 Z" id="Rectangle-1" stroke="#686868" stroke-width="2" fill="#E4E3E3" transform="translate(116.871292, 286.878658) rotate(-20.000000) translate(-116.871292, -286.878658) "></path>
                    <path d="M119.065016,304.7508 L114.982419,330.880134 L144.50243,332.297826 L137.843669,304.7508 L119.065016,304.7508 L119.065016,304.7508 Z" id="Rectangle-2" stroke="#403D3D" stroke-width="2" fill="#EDECEC" transform="translate(129.982419, 318.750800) rotate(-19.000000) translate(-129.982419, -318.750800) "></path>
                    <path d="M106.522623,283.15259 C107.612243,288.765136 107.477656,292.80728 109.16098,292.80728 C110.882323,292.80728 110.347019,288.969812 111.441162,283.15259 C112.453323,277.771244 115.16098,270.660821 115.16098,264.158661 C115.16098,259.615768 112.339679,256.243355 111.441162,251.818228 C109.663454,243.063143 109.16098,234.463595 109.16098,234.463595 C109.16098,234.463595 108.288285,242.460914 106.522623,251.818228 C105.758526,255.867646 103.16098,260.071717 103.16098,264.158661 C103.16098,270.816067 105.467271,277.716553 106.522623,283.15259 L106.522623,283.15259 Z" id="Oval-1" stroke="#979797" stroke-width="2" fill="#FFFFFF" transform="translate(109.160980, 263.463595) rotate(-19.000000) translate(-109.160980, -263.463595) "></path>
                    <g id="skiboot" transform="translate(113.000000, 309.000000)">
                        <path d="M15.4741699,67.1316612 C15.7453817,69.8878576 14.2144341,68.1600399 18.1381168,79.3932437 C22.0618,90.6264461 18.1381168,92.5277086 30.97417,94.3703907 C37.9610816,95.3733981 41.7543019,86.2273925 43.6848434,67.1316612 C44.116776,62.8592488 46.4349571,46.0348846 46.4741689,39.9910102 C46.4991422,36.1417748 46.7185892,30.0133127 46.4741689,28.3646604 C45.1826698,19.6533003 45.8525488,21.8833708 43.6848442,17.0266001 C41.2319136,11.5307769 43.8102231,2.93761535 30.97417,2.93761535 C18.1381169,2.93761535 20.8020638,8.68503455 18.1381169,14.5100797 C15.47417,20.335125 15.4741697,19.1049706 15.4741699,32.0001933 C15.4741702,44.895416 15.4741699,48.5746716 15.4741699,52.9352802 C15.4741699,58.0409809 15.0701909,63.0262165 15.4741699,67.1316612 L15.4741699,67.1316612 Z" id="Oval-2" fill="#575757" transform="translate(30.794624, 48.937615) rotate(-21.000000) translate(-30.794624, -48.937615) "></path>
                        <path d="M33.0913056,79.3134844 C35.8225497,83.8473751 38.4665036,88.8402998 40.2422875,88.8402998 C42.066607,88.8402998 44.707977,87.5980319 46.2889593,84.2077448 C47.5796861,81.4398872 48.0060252,76.875512 48.0060252,73.4002707 C48.0060252,69.5187412 49.6217938,65.9948083 48.0060252,62.6185624 C46.4031906,59.269344 39.8630002,55.7868139 38.2128041,55.7868139 C36.279053,55.7868139 31.5537107,57.9812476 29.2948607,60.9486777 C27.6829069,63.0662858 28.1174138,65.3437227 28.1174138,68.5636236 C28.1174138,72.1521149 30.7259005,75.3868898 33.0913056,79.3134844 L33.0913056,79.3134844 Z" id="Oval-3" stroke="#979797" fill="#D8D8D8" transform="translate(38.564104, 72.286814) rotate(-16.000000) translate(-38.564104, -72.286814) "></path>
                        <ellipse id="Oval-4" fill="#D8D8D8" transform="translate(13.449191, 47.106664) rotate(-27.000000) translate(-13.449191, -47.106664) " cx="13.4491913" cy="47.1066639" rx="2.5" ry="1.5"></ellipse>
                        <ellipse id="Oval-4" fill="#D8D8D8" transform="translate(12.323670, 42.418532) rotate(-27.000000) translate(-12.323670, -42.418532) " cx="12.3236703" cy="42.4185315" rx="2.5" ry="1.5"></ellipse>
                        <ellipse id="Oval-4" fill="#D8D8D8" transform="translate(16.681622, 60.570705) rotate(-27.000000) translate(-16.681622, -60.570705) " cx="16.6816215" cy="60.5707048" rx="2.5" ry="1.5"></ellipse>
                        <ellipse id="Oval-4" fill="#D8D8D8" transform="translate(16.075264, 58.045046) rotate(-27.000000) translate(-16.075264, -58.045046) " cx="16.0752645" cy="58.0450459" rx="2.5" ry="1.5"></ellipse>
                        <ellipse id="Oval-4" fill="#D8D8D8" transform="translate(20.132039, 74.942727) rotate(-27.000000) translate(-20.132039, -74.942727) " cx="20.1320387" cy="74.9427267" rx="2.5" ry="1.5"></ellipse>
                        <ellipse id="Oval-4" fill="#D8D8D8" transform="translate(19.525682, 72.417068) rotate(-27.000000) translate(-19.525682, -72.417068) " cx="19.5256816" cy="72.4170678" rx="2.5" ry="1.5"></ellipse>
                        <ellipse id="Oval-4" fill="#D8D8D8" transform="translate(24.036446, 91.205755) rotate(-27.000000) translate(-24.036446, -91.205755) " cx="24.0364464" cy="91.2057552" rx="2.5" ry="1.5"></ellipse>
                        <ellipse id="Oval-4" fill="#D8D8D8" transform="translate(22.976099, 86.789090) rotate(-27.000000) translate(-22.976099, -86.789090) " cx="22.9760988" cy="86.7890898" rx="2.5" ry="1.5"></ellipse>
                        <ellipse id="Oval-4" fill="#D8D8D8" transform="translate(28.213338, 108.603760) rotate(-27.000000) translate(-28.213338, -108.603760) " cx="28.2133378" cy="108.60376" rx="2.5" ry="1.5"></ellipse>
                        <ellipse id="Oval-4" fill="#D8D8D8" transform="translate(27.053005, 103.770626) rotate(-27.000000) translate(-27.053005, -103.770626) " cx="27.053005" cy="103.770626" rx="2.5" ry="1.5"></ellipse>
                        <path d="M12.4868334,22.5774542 C12.4868355,22.5774536 24.2980307,17.5979467 24.2980307,17.5979467 C24.2980307,17.5979467 21.0602533,22.0785026 19.3088029,24.1424423 C17.7137769,26.0220487 14.2586013,29.4285849 14.2586013,29.4285849 C14.2586013,29.4285849 19.2605797,28.8166595 21.791045,28.0182395 C24.8451099,27.0546118 31.0121919,24.1424423 31.0121919,24.1424423 C31.0121919,24.1424423 28.0215044,28.816625 25.5996835,30.9732481 C23.2576136,33.0588531 16.7205193,36.8691267 16.7205193,36.8691267 C16.7205193,36.8691267 20.7508567,37.0344353 24.0753448,35.8511339 C26.2723514,35.0691425 33.2850035,30.9732485 33.2850035,30.9732485 C33.2850035,30.9732485 30.7779845,35.7161703 28.7579382,37.6750379 C26.119251,40.2338107 19.3088028,44.5261689 19.3088028,44.5261689 C19.3088028,44.5261689 24.7659686,43.8431367 27.843334,42.6015249 C30.4262003,41.5594264 36.2894978,37.6750382 36.2894978,37.6750382 C36.2894978,37.6750382 35.1356227,42.386349 33.2850034,44.5261693 C31.0642383,47.0939789 24.0753447,51.7979288 24.0753447,51.7979288 L38.1001474,47.2708628 C38.1001474,47.2708628 42.6575431,52.1465583 44.1153219,57.455216 C45.2795446,61.6948573 42.8163202,65.946446 42.8163202,70.9878126 C42.81632,78.5255681 46.3805763,82.9867503 48.3171938,88.8813405 C51.5929648,98.8519875 48.3171938,103.497323 48.3171938,103.497323" id="Path-1" stroke="#979797"></path>
                        <path d="M13.3107923,22.3056195 C13.3107917,22.3056189 17.2874938,23.4344101 21.5226549,23.7874871 C26.1570016,24.1738434 31.0858125,23.7874871 31.0858125,23.7874871" id="Path-2" stroke="#979797"></path>
                        <path d="M13.6513878,29.653367 C13.6513878,29.653367 20.1679378,32.0814793 23.6638485,32.3485676 C26.8429116,32.5914487 33.6763092,31.1832751 33.6763092,31.1832751" id="Path-3" stroke="#979797"></path>
                        <path d="M15.4867849,36.6672938 C15.4867849,36.6672938 22.2313875,39.0473609 25.9590187,39.2879699 C29.2128766,39.4979981 36.4312526,38.0192055 36.4312526,38.0192055" id="Path-4" stroke="#979797"></path>
                        <path d="M18.4111022,44.5656604 C18.4111022,44.5656604 24.040943,46.7010875 27.3577393,47.1315209 C30.6315378,47.5563744 38.1828866,47.1315209 38.1828866,47.1315209" id="Path-5" stroke="#979797"></path>
                        <path d="M22.2725544,53 C22.2725544,53 20.6340267,63.1511963 21.0755117,67.0139843 C21.5606541,71.258755 25.8303571,77.8986864 26.8543333,83.1955368 C27.4954956,86.5121577 27.9758235,88.9907444 27.9985242,92.2245002 C28.0476436,99.221649 26.8543333,106 26.8543333,106" id="Path-6" stroke="#979797"></path>
                    </g>
                    <path d="M126,314 C127.10457,314 128,313.10457 128,312 C128,310.89543 127.10457,310 126,310 C124.89543,310 124,310.89543 124,312 C124,313.10457 124.89543,314 126,314 L126,314 Z" id="Oval-27" fill="#666565"></path>
                </g>
                <g id="Ski1" transform="translate(302.201510, 303.111246) rotate(54.000000) translate(-302.201510, -303.111246) translate(184.701510, 14.611246)">
                    <path d="M120.070485,15.730817 C118.370336,8.97426126 119.056232,-13.2706924 117.658205,-13.2706924 C116.260178,-13.2706889 115.994242,7.84518781 114.524929,13.6843824 C109.816903,32.3945386 105.186199,45.4145338 102.03197,60.3773724 C101.17831,64.4269215 105.031109,105.707776 105.733166,162.940802 C106.220729,202.687774 103.629346,589.556515 103.629346,589.556515 L128.304976,589.556515 C128.304976,589.556515 130.87684,200.700591 130.961544,160.542943 C131.079896,104.432645 133.878775,64.2637494 133.030323,60.3773724 C129.867673,45.8906957 124.547675,33.5236154 120.070485,15.730817 L120.070485,15.730817 Z" id="Rectangle-1" stroke="#686868" stroke-width="2" fill="#E4E3E3" transform="translate(117.549704, 288.142912) rotate(-20.000000) translate(-117.549704, -288.142912) "></path>
                    <path d="M119.415984,306.912091 L114.327667,333.603275 L142.933665,333.603275 L138.114727,306.912091 L119.415984,306.912091 L119.415984,306.912091 Z" id="Rectangle-2" stroke="#403D3D" stroke-width="2" fill="#EDECEC" transform="translate(128.630666, 320.257683) rotate(-19.000000) translate(-128.630666, -320.257683) "></path>
                    <path d="M107.106317,284.621076 C108.191301,290.26311 108.057286,294.326491 109.733447,294.326491 C111.447465,294.326491 110.914439,290.468862 112.003926,284.621076 C113.01178,279.211457 115.707915,272.063676 115.707915,265.527354 C115.707915,260.960593 112.89862,257.570462 112.003926,253.122085 C110.233783,244.321002 109.733447,235.676272 109.733447,235.676272 C109.733447,235.676272 108.864466,243.715609 107.106317,253.122085 C106.345472,257.192779 103.758979,261.418938 103.758979,265.527354 C103.758979,272.219738 106.055456,279.156479 107.106317,284.621076 L107.106317,284.621076 Z" id="Oval-1" stroke="#979797" stroke-width="2" fill="#FFFFFF" transform="translate(109.733447, 265.001382) rotate(-19.000000) translate(-109.733447, -265.001382) "></path>
                    <g id="skiboot" transform="translate(114.147002, 317.665571)">
                        <path d="M15.3055251,67.4366978 C15.5755828,70.2073751 14.0511499,68.4704795 17.958136,79.7627019 C21.8651227,91.0549229 17.958136,92.9661745 30.7395677,94.818538 C37.6967478,95.8268151 41.4738267,86.6327569 43.3961532,67.4366978 C43.8262477,63.1418384 46.1345642,46.22908 46.1736092,40.1534514 C46.1984762,36.2839924 46.4169894,30.1233317 46.1736092,28.4660175 C44.8876058,19.7088884 45.5546343,21.9506756 43.396154,17.0683877 C40.9536614,11.5436898 43.5209993,2.90538029 30.7395677,2.90538029 C17.9581361,2.90538029 20.6107471,8.68299609 17.9581361,14.5386457 C15.3055252,20.3942954 15.3055249,19.1576778 15.3055251,32.1206513 C15.3055254,45.0836247 15.3055251,48.7822109 15.3055251,53.1657299 C15.3055251,58.2982556 14.9032651,63.3096833 15.3055251,67.4366978 L15.3055251,67.4366978 Z" id="Oval-2" fill="#575757" transform="translate(30.707131, 48.899339) rotate(-21.000000) translate(-30.707131, -48.899339) "></path>
                        <path d="M33.0564637,79.7915908 C35.7760854,84.3493023 38.4087885,89.3684595 40.1770159,89.3684595 C41.9935723,89.3684595 44.6237024,88.1196648 46.1979571,84.7115654 C47.4831915,81.9291656 47.9077164,77.3408095 47.9077164,73.8473094 C47.9077164,69.9453866 49.5166094,66.4029392 47.9077164,63.0089547 C46.3117023,59.6421397 39.7993425,56.1413126 38.1561686,56.1413126 C36.2306462,56.1413126 31.5254117,58.3472757 29.2761738,61.3302965 C27.6710794,63.4590304 28.1037374,65.7484328 28.1037374,68.9852509 C28.1037374,72.5925959 30.7011241,75.8443661 33.0564637,79.7915908 L33.0564637,79.7915908 Z" id="Oval-3" stroke="#979797" fill="#D8D8D8" transform="translate(38.336717, 72.754886) rotate(-16.000000) translate(-38.336717, -72.754886) "></path>
                        <ellipse id="Oval-4" fill="#D8D8D8" transform="translate(13.442553, 23.623468) rotate(-27.000000) translate(-13.442553, -23.623468) " cx="2.4893617" cy="1.50788091" rx="2.4893617" ry="1.50788091"></ellipse>
                        <ellipse id="Oval-4" fill="#D8D8D8" transform="translate(23.400000, 18.597198) rotate(-27.000000) translate(-23.400000, -18.597198) " cx="2.4893617" cy="1.50788091" rx="2.4893617" ry="1.50788091"></ellipse>
                        <ellipse id="Oval-4" fill="#D8D8D8" transform="translate(13.442553, 30.660245) rotate(-27.000000) translate(-13.442553, -30.660245) " cx="2.4893617" cy="1.50788091" rx="2.4893617" ry="1.50788091"></ellipse>
                        <ellipse id="Oval-4" fill="#D8D8D8" transform="translate(30.370213, 24.628722) rotate(-27.000000) translate(-30.370213, -24.628722) " cx="2.4893617" cy="1.50788091" rx="2.4893617" ry="1.50788091"></ellipse>
                        <ellipse id="Oval-4" fill="#D8D8D8" transform="translate(16.429787, 37.697023) rotate(-27.000000) translate(-16.429787, -37.697023) " cx="2.4893617" cy="1.50788091" rx="2.4893617" ry="1.50788091"></ellipse>
                        <ellipse id="Oval-4" fill="#D8D8D8" transform="translate(33.357447, 31.665499) rotate(-27.000000) translate(-33.357447, -31.665499) " cx="2.4893617" cy="1.50788091" rx="2.4893617" ry="1.50788091"></ellipse>
                        <ellipse id="Oval-4" fill="#D8D8D8" transform="translate(18.421277, 45.739054) rotate(-27.000000) translate(-18.421277, -45.739054) " cx="2.4893617" cy="1.50788091" rx="2.4893617" ry="1.50788091"></ellipse>
                        <ellipse id="Oval-4" fill="#D8D8D8" transform="translate(35.348936, 38.702277) rotate(-27.000000) translate(-35.348936, -38.702277) " cx="2.4893617" cy="1.50788091" rx="2.4893617" ry="1.50788091"></ellipse>
                        <ellipse id="Oval-4" fill="#D8D8D8" transform="translate(23.400000, 53.781086) rotate(-27.000000) translate(-23.400000, -53.781086) " cx="2.4893617" cy="1.50788091" rx="2.4893617" ry="1.50788091"></ellipse>
                        <ellipse id="Oval-4" fill="#D8D8D8" transform="translate(37.340426, 47.749562) rotate(-27.000000) translate(-37.340426, -47.749562) " cx="2.4893617" cy="1.50788091" rx="2.4893617" ry="1.50788091"></ellipse>
                        <path d="M12.4336979,22.6960748 C12.4337,22.6960742 24.1946348,17.6904053 24.1946348,17.6904053 C24.1946348,17.6904053 20.9706352,22.1945017 19.2266378,24.2692853 C17.6383991,26.158767 14.1979264,29.5832009 14.1979264,29.5832009 C14.1979264,29.5832009 19.1786198,28.9680605 21.6983171,28.1654457 C24.739386,27.1967551 30.8802251,24.2692853 30.8802251,24.2692853 C30.8802251,24.2692853 27.902264,28.9680258 25.4907487,31.1359797 C23.158645,33.2325423 16.6493682,37.0628349 16.6493682,37.0628349 C16.6493682,37.0628349 20.6625552,37.229012 23.9728965,36.0394936 C26.1605542,35.2533937 33.1433652,31.1359801 33.1433652,31.1359801 C33.1433652,31.1359801 30.6470144,35.9038209 28.635564,37.8729803 C26.0081053,40.4451967 19.2266377,44.7601067 19.2266377,44.7601067 C19.2266377,44.7601067 24.6605815,44.0734859 27.7248517,42.8253508 C30.2967271,41.7777772 36.1350744,37.8729806 36.1350744,37.8729806 C36.1350744,37.8729806 34.9861094,42.6090444 33.1433651,44.7601071 C30.9320501,47.3414079 23.9728964,52.070072 23.9728964,52.070072 L37.9380191,47.5192211 C37.9380191,47.5192211 50.8502778,54.788365 51.8840641,61.7255659 C52.9178505,68.6627668 55.8819708,73.7068949 61.3335422,76.7382794 C67.1889212,79.9942042 68.0917793,78.9386742 70.0201558,84.8642343" id="Path-1" stroke="#979797"></path>
                        <path d="M13.2541506,22.4228119 C13.25415,22.4228113 17.21393,23.5575331 21.4310691,23.9124651 C26.0456952,24.3008513 30.9535324,23.9124651 30.9535324,23.9124651" id="Path-2" stroke="#979797"></path>
                        <path d="M13.5932968,29.809164 C13.5932968,29.809164 20.0821168,32.2500335 23.5631513,32.518525 C26.7286864,32.7626822 33.5330058,31.3471102 33.5330058,31.3471102" id="Path-3" stroke="#979797"></path>
                        <path d="M15.4208837,36.8599416 C15.4208837,36.8599416 22.1367859,39.2525134 25.8485548,39.4943866 C29.0885665,39.7055182 36.276226,38.2189561 36.276226,38.2189561" id="Path-4" stroke="#979797"></path>
                        <path d="M18.3327571,44.7998057 C18.3327571,44.7998057 23.9386411,46.9464522 27.2413234,47.3791471 C30.5011908,47.8062328 38.0204062,47.3791471 38.0204062,47.3791471" id="Path-5" stroke="#979797"></path>
                        <path d="M22.1777776,53.2784588 C22.1777776,53.2784588 32.8524851,63.5267083 33.2920914,67.4097911 C33.7751694,71.6768636 45.9144849,74.3513243 49.6772647,82.2790422 C53.4400447,90.2067601 65.3921036,94.8775756 65.4147078,98.1283214" id="Path-6" stroke="#979797"></path>
                    </g>
                    <path d="M125.628425,317.371224 C126.728294,317.371224 127.619914,316.471089 127.619914,315.360716 C127.619914,314.250343 126.728294,313.350209 125.628425,313.350209 C124.528555,313.350209 123.636936,314.250343 123.636936,315.360716 C123.636936,316.471089 124.528555,317.371224 125.628425,317.371224 L125.628425,317.371224 Z" id="Oval-27" fill="#666565"></path>
                </g>
            </g>
        </g>
    </g>
</svg>