<?xml version="1.0" encoding="UTF-8" standalone="no"?>
<svg width="50px" height="50px" viewBox="0 0 50 50" version="1.1" xmlns="http://www.w3.org/2000/svg" xmlns:xlink="http://www.w3.org/1999/xlink" xmlns:sketch="http://www.bohemiancoding.com/sketch/ns">
    <title>twitter_icon</title>
    <description>Created with Sketch (http://www.bohemiancoding.com/sketch)</description>
    <defs></defs>
    <g id="Page-1" stroke="none" stroke-width="1" fill="none" fill-rule="evenodd" sketch:type="MSPage">
        <path d="M18.857302,25.8377504 C15.0389086,26.9804607 11.5859526,26.4582593 11.5859526,26.4582593 C11.5859526,26.4582593 12.1574054,28.8078726 14.2933777,30.0196269 C16.4293501,31.231381 18.5920471,30.7257545 18.5920471,30.7257545 C18.5920471,30.7257545 17.9507807,31.2514227 17.5673241,31.4552962 C17.1564418,31.673751 16.2090303,31.9927395 16.2090303,31.9927395 C16.2090303,31.9927395 16.8798267,33.1105958 19.1960524,33.6696362 C21.512278,34.2286768 23.8741047,32.8861547 23.8741047,32.8861547 C23.8741047,32.8861547 23.4337392,33.5664402 23.1061267,33.8846881 C22.8063056,34.1759389 21.9918038,34.7146511 21.9918038,34.7146511 C21.9918038,34.7146511 23.3906654,35.6090182 25.4853619,35.4338277 C27.5800584,35.2586371 29.0292439,33.8846881 29.0292439,33.8846881 C29.0292439,33.8846881 29.1080721,35.2750119 27.808963,37.5324858 C26.5098538,39.7899596 24.4367022,41.4805932 24.4367022,41.4805932 C24.4367022,41.4805932 29.2275641,40.9547555 33.4643575,36.7951565 C37.701151,32.6355579 38.398712,28.575991 38.398712,25.5850307 C38.398712,23.9244078 37.4854477,20.1742386 35.9671539,17.4578878 C34.7113473,15.2111481 32.8003892,13.789824 32.8003892,13.789824 C32.8003892,13.789824 33.1115765,12.791187 33.0805389,11.9114678 C33.0495013,11.0317486 32.8003892,9.61590214 32.8003892,9.61590214 C32.8003892,9.61590214 32.3405731,10.6555358 32.0973636,11.0483428 C31.786878,11.5498073 31.0637407,12.5314581 31.0637407,12.5314581 C31.0637407,12.5314581 31.202456,11.2156956 31.1999056,10.636121 C31.1954161,9.61590211 30.5680496,8.52699369 30.5680496,8.52699369 C30.5680496,8.52699369 30.107782,9.86140811 29.7770839,10.4599042 C29.4718779,11.0122647 28.7473953,12.0854584 28.7473953,12.0854584 C28.7473953,12.0854584 26.3856505,12.1290671 24.7959534,13.1922711 C23.2062562,14.2554752 22.6936149,15.8899131 22.6936149,15.8899131 C22.6936149,15.8899131 21.7625599,17.2891503 22.6936149,19.6334492 C23.6246699,21.9777481 25.1132428,22.5084745 25.1132428,22.5084745 C25.1132428,22.5084745 22.6756955,24.6950404 18.857302,25.8377504 Z" id="Oval-1" stroke="#222222" sketch:type="MSShapeGroup" transform="translate(25.000000, 25.000000) rotate(44.000000) translate(-25.000000, -25.000000) "></path>
        <rect id="Rectangle-1" stroke="#222222" stroke-width="2" sketch:type="MSShapeGroup" x="0" y="0" width="50" height="50"></rect>
    </g>
</svg>