<?xml version="1.0" encoding="UTF-8" standalone="no"?>
<svg width="352px" height="352px" viewBox="0 0 352 352" version="1.1" xmlns="http://www.w3.org/2000/svg" xmlns:xlink="http://www.w3.org/1999/xlink" xmlns:sketch="http://www.bohemiancoding.com/sketch/ns">
    <title>twitter_icon</title>
    <description>Created with Sketch (http://www.bohemiancoding.com/sketch)</description>
    <defs></defs>
    <g id="Page-1" stroke="none" stroke-width="1" fill="none" fill-rule="evenodd" sketch:type="MSPage">
        <path d="M114.555044,161.54832 C83.6788817,170.788465 55.7577071,166.565858 55.7577071,166.565858 C55.7577071,166.565858 60.3785695,185.56522 77.6503956,195.363666 C94.9222225,205.162111 112.410149,201.073532 112.410149,201.073532 C112.410149,201.073532 107.224763,205.324172 104.124069,206.972726 C100.801606,208.739188 93.1406802,211.318582 93.1406802,211.318582 C93.1406802,211.318582 98.5648511,220.357753 117.294235,224.878246 C136.02362,229.398742 155.121742,218.542886 155.121742,218.542886 C155.121742,218.542886 151.560874,224.043787 148.911744,226.617192 C146.487341,228.972295 139.901145,233.32841 139.901145,233.32841 C139.901145,233.32841 151.212572,240.560411 168.150635,239.143792 C185.088698,237.727172 196.807053,226.617192 196.807053,226.617192 C196.807053,226.617192 197.44447,237.859581 186.939659,256.113889 C176.434846,274.368196 159.670999,288.03894 159.670999,288.03894 C159.670999,288.03894 198.410702,283.786929 232.670116,250.151722 C266.92953,216.516518 272.570125,183.690188 272.570125,159.504787 C272.570125,146.076715 265.185318,115.752225 252.908143,93.7873624 C242.753482,75.6198523 227.301158,64.1267897 227.301158,64.1267897 C227.301158,64.1267897 229.81747,56.0516458 229.566495,48.9380907 C229.31552,41.8245356 227.301158,30.375766 227.301158,30.375766 C227.301158,30.375766 223.583009,38.7824165 221.616377,41.9587184 C219.105739,46.0136437 213.258331,53.9514349 213.258331,53.9514349 C213.258331,53.9514349 214.380005,43.3119611 214.359382,38.625425 C214.32308,30.3757658 209.25009,21.5706718 209.25009,21.5706718 C209.25009,21.5706718 205.52829,32.360968 202.85421,37.2005064 C200.386264,41.6669855 194.527977,50.3450076 194.527977,50.3450076 C194.527977,50.3450076 175.430518,50.6976348 162.575963,59.2948787 C149.721409,67.8921226 145.576106,81.1084584 145.576106,81.1084584 C145.576106,81.1084584 138.047441,92.4229226 145.576106,111.379312 C153.104771,130.335702 165.141618,134.627243 165.141618,134.627243 C165.141618,134.627243 145.431207,152.308177 114.555044,161.54832 Z" id="Oval-1" stroke="#222222" stroke-width="2" sketch:type="MSShapeGroup" transform="translate(164.225918, 154.774131) rotate(44.000000) translate(-164.225918, -154.774131) "></path>
        <rect id="Rectangle-1" stroke="#222222" stroke-width="3" sketch:type="MSShapeGroup" x="0" y="0" width="352" height="352"></rect>
    </g>
</svg>