<?xml version="1.0" encoding="UTF-8" standalone="no"?>
<svg width="50px" height="50px" viewBox="0 0 50 50" version="1.1" xmlns="http://www.w3.org/2000/svg" xmlns:xlink="http://www.w3.org/1999/xlink" xmlns:sketch="http://www.bohemiancoding.com/sketch/ns">
    <title>twitter_icon</title>
    <description>Created with Sketch (http://www.bohemiancoding.com/sketch)</description>
    <defs></defs>
    <g id="Page-1" stroke="none" stroke-width="1" fill="none" fill-rule="evenodd" sketch:type="MSPage">
        <path d="M16.857302,23.8377504 C13.0389086,24.9804607 9.58595256,24.4582593 9.58595256,24.4582593 C9.58595256,24.4582593 10.1574054,26.8078726 12.2933777,28.0196269 C14.4293501,29.231381 16.5920471,28.7257545 16.5920471,28.7257545 C16.5920471,28.7257545 15.9507807,29.2514227 15.5673241,29.4552962 C15.1564418,29.673751 14.2090303,29.9927395 14.2090303,29.9927395 C14.2090303,29.9927395 14.8798267,31.1105958 17.1960524,31.6696362 C19.512278,32.2286768 21.8741047,30.8861547 21.8741047,30.8861547 C21.8741047,30.8861547 21.4337392,31.5664402 21.1061267,31.8846881 C20.8063056,32.1759389 19.9918038,32.7146511 19.9918038,32.7146511 C19.9918038,32.7146511 21.3906654,33.6090182 23.4853619,33.4338277 C25.5800584,33.2586371 27.0292439,31.8846881 27.0292439,31.8846881 C27.0292439,31.8846881 27.1080721,33.2750119 25.808963,35.5324858 C24.5098538,37.7899596 22.4367022,39.4805932 22.4367022,39.4805932 C22.4367022,39.4805932 27.2275641,38.9547555 31.4643575,34.7951565 C35.701151,30.6355579 36.398712,26.575991 36.398712,23.5850307 C36.398712,21.9244078 35.4854477,18.1742386 33.9671539,15.4578878 C32.7113473,13.2111481 30.8003892,11.789824 30.8003892,11.789824 C30.8003892,11.789824 31.1115765,10.791187 31.0805389,9.91146782 C31.0495013,9.03174864 30.8003892,7.61590214 30.8003892,7.61590214 C30.8003892,7.61590214 30.3405731,8.65553584 30.0973636,9.04834277 C29.786878,9.54980729 29.0637407,10.5314581 29.0637407,10.5314581 C29.0637407,10.5314581 29.202456,9.2156956 29.1999056,8.63612101 C29.1954161,7.61590211 28.5680496,6.52699369 28.5680496,6.52699369 C28.5680496,6.52699369 28.107782,7.86140811 27.7770839,8.45990418 C27.4718779,9.01226474 26.7473953,10.0854584 26.7473953,10.0854584 C26.7473953,10.0854584 24.3856505,10.1290671 22.7959534,11.1922711 C21.2062562,12.2554752 20.6936149,13.8899131 20.6936149,13.8899131 C20.6936149,13.8899131 19.7625599,15.2891503 20.6936149,17.6334492 C21.6246699,19.9777481 23.1132428,20.5084745 23.1132428,20.5084745 C23.1132428,20.5084745 20.6756955,22.6950404 16.857302,23.8377504 Z" id="Oval-1" stroke="#222222" sketch:type="MSShapeGroup" transform="translate(23.000000, 23.000000) rotate(44.000000) translate(-23.000000, -23.000000) "></path>
        <rect id="Rectangle-1" stroke="#222222" stroke-width="2" sketch:type="MSShapeGroup" x="0" y="0" width="50" height="50"></rect>
    </g>
</svg>